<svg height="48" viewBox="0 0 332 48" fill="none" xmlns="http://www.w3.org/2000/svg">
<path d="M0.89978 37V0.636353H15.4594C18.1346 0.636353 20.3659 1.0329 22.1533 1.82598C23.9407 2.61907 25.2842 3.71992 26.1839 5.12854C27.0835 6.52532 27.5333 8.13517 27.5333 9.95809C27.5333 11.3786 27.2492 12.6274 26.681 13.7045C26.1128 14.7699 25.3316 15.6458 24.3373 16.3324C23.3548 17.0071 22.2303 17.4865 20.9637 17.7706V18.1257C22.3486 18.1849 23.6448 18.5755 24.8522 19.2976C26.0714 20.0196 27.0598 21.0317 27.8174 22.3338C28.575 23.6241 28.9537 25.1629 28.9537 26.9503C28.9537 28.8797 28.4743 30.602 27.5155 32.1172C26.5686 33.6205 25.1659 34.8101 23.3074 35.6861C21.449 36.562 19.1585 37 16.436 37H0.89978ZM8.58799 30.7145H14.8557C16.9983 30.7145 18.5608 30.3061 19.5432 29.4893C20.5257 28.6607 21.017 27.5599 21.017 26.1868C21.017 25.1806 20.7743 24.2929 20.289 23.5234C19.8037 22.754 19.1112 22.1503 18.2116 21.7124C17.3238 21.2744 16.2644 21.0554 15.0333 21.0554H8.58799V30.7145ZM8.58799 15.853H14.2876C15.3411 15.853 16.2762 15.6695 17.093 15.3026C17.9216 14.9238 18.5726 14.3911 19.0461 13.7045C19.5314 13.018 19.7741 12.1953 19.7741 11.2365C19.7741 9.92258 19.3065 8.86315 18.3714 8.05823C17.4481 7.2533 16.1341 6.85084 14.4296 6.85084H8.58799V15.853ZM51.3037 25.3878V9.72726H58.8676V37H51.6056V32.0462H51.3215C50.7059 33.6442 49.682 34.9285 48.2497 35.8991C46.8293 36.8698 45.0951 37.3551 43.0473 37.3551C41.2244 37.3551 39.6205 36.9408 38.2355 36.1122C36.8506 35.2836 35.7675 34.1058 34.9862 32.5788C34.2168 31.0518 33.8262 29.223 33.8144 27.0923V9.72726H41.3783V25.7429C41.3901 27.3527 41.8222 28.6252 42.6744 29.5604C43.5267 30.4955 44.669 30.9631 46.1013 30.9631C47.0128 30.9631 47.865 30.7559 48.6581 30.3416C49.4512 29.9155 50.0904 29.2881 50.5757 28.4595C51.0729 27.6309 51.3155 26.607 51.3037 25.3878ZM74.9676 37.4439C72.8961 37.4439 71.0199 36.9112 69.339 35.8459C67.67 34.7687 66.3443 33.1884 65.3618 31.1051C64.3911 29.0099 63.9058 26.4413 63.9058 23.3991C63.9058 20.2741 64.4089 17.6759 65.415 15.6044C66.4212 13.5211 67.7588 11.9645 69.4278 10.9347C71.1087 9.89298 72.9494 9.37215 74.9498 9.37215C76.4768 9.37215 77.7493 9.63257 78.7673 10.1534C79.7971 10.6624 80.6257 11.3016 81.2531 12.071C81.8923 12.8286 82.3776 13.5743 82.7091 14.3082H82.9399V0.636353H90.4861V37H83.0287V32.6321H82.7091C82.354 33.3897 81.8509 34.1413 81.1998 34.8871C80.5606 35.621 79.7261 36.2306 78.6963 36.7159C77.6783 37.2012 76.4354 37.4439 74.9676 37.4439ZM77.3646 31.4247C78.5838 31.4247 79.6137 31.0933 80.4541 30.4304C81.3064 29.7557 81.9574 28.8146 82.4072 27.6072C82.8689 26.3999 83.0997 24.9853 83.0997 23.3636C83.0997 21.742 82.8748 20.3333 82.425 19.1378C81.9752 17.9422 81.3241 17.0189 80.4719 16.3679C79.6196 15.7169 78.5838 15.3913 77.3646 15.3913C76.1217 15.3913 75.0741 15.7287 74.2219 16.4034C73.3696 17.0781 72.7245 18.0133 72.2865 19.2088C71.8485 20.4044 71.6295 21.7893 71.6295 23.3636C71.6295 24.9498 71.8485 26.3525 72.2865 27.5717C72.7363 28.7791 73.3814 29.7261 74.2219 30.4126C75.0741 31.0874 76.1217 31.4247 77.3646 31.4247ZM108.992 47.7955C106.542 47.7955 104.441 47.4581 102.689 46.7834C100.949 46.1205 99.5637 45.215 98.5338 44.0668C97.504 42.9186 96.8352 41.6283 96.5274 40.196L103.523 39.255C103.736 39.7995 104.074 40.3085 104.535 40.782C104.997 41.2554 105.607 41.6342 106.364 41.9183C107.133 42.2143 108.069 42.3622 109.169 42.3622C110.815 42.3622 112.17 41.9598 113.236 41.1548C114.313 40.3617 114.851 39.0301 114.851 37.1598V32.1705H114.532C114.2 32.928 113.703 33.6442 113.04 34.3189C112.377 34.9936 111.525 35.544 110.483 35.9702C109.442 36.3963 108.199 36.6094 106.755 36.6094C104.707 36.6094 102.843 36.1359 101.162 35.1889C99.4926 34.2301 98.161 32.7682 97.1666 30.8033C96.1842 28.8265 95.6929 26.3288 95.6929 23.3104C95.6929 20.2209 96.196 17.6404 97.2021 15.5689C98.2083 13.4974 99.5459 11.9467 101.215 10.9169C102.896 9.88706 104.736 9.37215 106.737 9.37215C108.264 9.37215 109.542 9.63257 110.572 10.1534C111.602 10.6624 112.431 11.3016 113.058 12.071C113.697 12.8286 114.188 13.5743 114.532 14.3082H114.816V9.72726H122.326V37.2663C122.326 39.5864 121.758 41.5277 120.622 43.0902C119.486 44.6527 117.911 45.8246 115.899 46.6058C113.898 47.3989 111.596 47.7955 108.992 47.7955ZM109.152 30.9276C110.371 30.9276 111.401 30.6257 112.241 30.022C113.093 29.4065 113.745 28.5305 114.194 27.3942C114.656 26.246 114.887 24.8729 114.887 23.2749C114.887 21.6768 114.662 20.2919 114.212 19.12C113.762 17.9363 113.111 17.0189 112.259 16.3679C111.407 15.7169 110.371 15.3913 109.152 15.3913C107.909 15.3913 106.861 15.7287 106.009 16.4034C105.157 17.0663 104.512 17.9896 104.074 19.1733C103.636 20.357 103.417 21.7242 103.417 23.2749C103.417 24.8492 103.636 26.2105 104.074 27.3587C104.523 28.495 105.169 29.3769 106.009 30.0043C106.861 30.6198 107.909 30.9276 109.152 30.9276ZM140.775 37.5327C137.969 37.5327 135.554 36.9645 133.53 35.8281C131.518 34.6799 129.967 33.0582 128.878 30.9631C127.789 28.8561 127.245 26.3643 127.245 23.4879C127.245 20.6825 127.789 18.2204 128.878 16.1016C129.967 13.9827 131.5 12.3314 133.477 11.1477C135.466 9.964 137.798 9.37215 140.473 9.37215C142.272 9.37215 143.947 9.66216 145.498 10.2422C147.06 10.8104 148.421 11.6686 149.581 12.8168C150.753 13.965 151.665 15.4091 152.316 17.1491C152.967 18.8774 153.292 20.9015 153.292 23.2216V25.299H130.263V20.6115H146.172C146.172 19.5225 145.936 18.5578 145.462 17.7173C144.989 16.8769 144.332 16.2199 143.491 15.7464C142.663 15.2611 141.698 15.0185 140.597 15.0185C139.449 15.0185 138.431 15.2848 137.543 15.8175C136.667 16.3383 135.981 17.0426 135.483 17.9304C134.986 18.8063 134.732 19.7829 134.72 20.8601V25.3168C134.72 26.6662 134.968 27.8321 135.466 28.8146C135.975 29.7971 136.691 30.5547 137.614 31.0874C138.537 31.62 139.632 31.8864 140.899 31.8864C141.739 31.8864 142.509 31.768 143.207 31.5312C143.906 31.2945 144.503 30.9394 145 30.4659C145.498 29.9924 145.876 29.4124 146.137 28.7259L153.133 29.1875C152.777 30.8684 152.049 32.3362 150.949 33.5909C149.86 34.8338 148.451 35.8045 146.723 36.5028C145.006 37.1894 143.024 37.5327 140.775 37.5327ZM172.735 9.72726V15.4091H156.311V9.72726H172.735ZM160.04 3.19317H167.603V28.6193C167.603 29.3177 167.71 29.8622 167.923 30.2528C168.136 30.6316 168.432 30.898 168.811 31.0518C169.201 31.2057 169.651 31.2827 170.16 31.2827C170.515 31.2827 170.87 31.2531 171.226 31.1939C171.581 31.1229 171.853 31.0696 172.042 31.0341L173.232 36.6626C172.853 36.781 172.321 36.9171 171.634 37.071C170.947 37.2367 170.113 37.3374 169.13 37.3729C167.307 37.4439 165.709 37.2012 164.336 36.6449C162.975 36.0885 161.916 35.2244 161.158 34.0526C160.401 32.8807 160.028 31.401 160.04 29.6136V3.19317ZM178.39 37V0.636353H192.95C195.625 0.636353 197.856 1.0329 199.644 1.82598C201.431 2.61907 202.774 3.71992 203.674 5.12854C204.574 6.52532 205.024 8.13517 205.024 9.95809C205.024 11.3786 204.739 12.6274 204.171 13.7045C203.603 14.7699 202.822 15.6458 201.828 16.3324C200.845 17.0071 199.72 17.4865 198.454 17.7706V18.1257C199.839 18.1849 201.135 18.5755 202.342 19.2976C203.562 20.0196 204.55 21.0317 205.308 22.3338C206.065 23.6241 206.444 25.1629 206.444 26.9503C206.444 28.8797 205.965 30.602 205.006 32.1172C204.059 33.6205 202.656 34.8101 200.798 35.6861C198.939 36.562 196.649 37 193.926 37H178.39ZM186.078 30.7145H192.346C194.488 30.7145 196.051 30.3061 197.033 29.4893C198.016 28.6607 198.507 27.5599 198.507 26.1868C198.507 25.1806 198.265 24.2929 197.779 23.5234C197.294 22.754 196.601 22.1503 195.702 21.7124C194.814 21.2744 193.755 21.0554 192.524 21.0554H186.078V30.7145ZM186.078 15.853H191.778C192.831 15.853 193.766 15.6695 194.583 15.3026C195.412 14.9238 196.063 14.3911 196.536 13.7045C197.022 13.018 197.264 12.1953 197.264 11.2365C197.264 9.92258 196.797 8.86315 195.862 8.05823C194.938 7.2533 193.624 6.85084 191.92 6.85084H186.078V15.853ZM228.794 25.3878V9.72726H236.358V37H229.096V32.0462H228.812C228.196 33.6442 227.172 34.9285 225.74 35.8991C224.32 36.8698 222.585 37.3551 220.538 37.3551C218.715 37.3551 217.111 36.9408 215.726 36.1122C214.341 35.2836 213.258 34.1058 212.476 32.5788C211.707 31.0518 211.316 29.223 211.305 27.0923V9.72726H218.869V25.7429C218.88 27.3527 219.312 28.6252 220.165 29.5604C221.017 30.4955 222.159 30.9631 223.592 30.9631C224.503 30.9631 225.355 30.7559 226.148 30.3416C226.941 29.9155 227.581 29.2881 228.066 28.4595C228.563 27.6309 228.806 26.607 228.794 25.3878ZM252.458 37.4439C250.386 37.4439 248.51 36.9112 246.829 35.8459C245.16 34.7687 243.834 33.1884 242.852 31.1051C241.881 29.0099 241.396 26.4413 241.396 23.3991C241.396 20.2741 241.899 17.6759 242.905 15.6044C243.911 13.5211 245.249 11.9645 246.918 10.9347C248.599 9.89298 250.44 9.37215 252.44 9.37215C253.967 9.37215 255.24 9.63257 256.258 10.1534C257.287 10.6624 258.116 11.3016 258.743 12.071C259.383 12.8286 259.868 13.5743 260.199 14.3082H260.43V0.636353H267.976V37H260.519V32.6321H260.199C259.844 33.3897 259.341 34.1413 258.69 34.8871C258.051 35.621 257.216 36.2306 256.187 36.7159C255.169 37.2012 253.926 37.4439 252.458 37.4439ZM254.855 31.4247C256.074 31.4247 257.104 31.0933 257.944 30.4304C258.797 29.7557 259.448 28.8146 259.897 27.6072C260.359 26.3999 260.59 24.9853 260.59 23.3636C260.59 21.742 260.365 20.3333 259.915 19.1378C259.465 17.9422 258.814 17.0189 257.962 16.3679C257.11 15.7169 256.074 15.3913 254.855 15.3913C253.612 15.3913 252.564 15.7287 251.712 16.4034C250.86 17.0781 250.215 18.0133 249.777 19.2088C249.339 20.4044 249.12 21.7893 249.12 23.3636C249.12 24.9498 249.339 26.3525 249.777 27.5717C250.227 28.7791 250.872 29.7261 251.712 30.4126C252.564 31.0874 253.612 31.4247 254.855 31.4247ZM284.245 37.4439C282.173 37.4439 280.297 36.9112 278.616 35.8459C276.947 34.7687 275.622 33.1884 274.639 31.1051C273.668 29.0099 273.183 26.4413 273.183 23.3991C273.183 20.2741 273.686 17.6759 274.692 15.6044C275.699 13.5211 277.036 11.9645 278.705 10.9347C280.386 9.89298 282.227 9.37215 284.227 9.37215C285.754 9.37215 287.027 9.63257 288.045 10.1534C289.074 10.6624 289.903 11.3016 290.53 12.071C291.17 12.8286 291.655 13.5743 291.986 14.3082H292.217V0.636353H299.763V37H292.306V32.6321H291.986C291.631 33.3897 291.128 34.1413 290.477 34.8871C289.838 35.621 289.003 36.2306 287.974 36.7159C286.956 37.2012 285.713 37.4439 284.245 37.4439ZM286.642 31.4247C287.861 31.4247 288.891 31.0933 289.731 30.4304C290.584 29.7557 291.235 28.8146 291.685 27.6072C292.146 26.3999 292.377 24.9853 292.377 23.3636C292.377 21.742 292.152 20.3333 291.702 19.1378C291.253 17.9422 290.601 17.0189 289.749 16.3679C288.897 15.7169 287.861 15.3913 286.642 15.3913C285.399 15.3913 284.351 15.7287 283.499 16.4034C282.647 17.0781 282.002 18.0133 281.564 19.2088C281.126 20.4044 280.907 21.7893 280.907 23.3636C280.907 24.9498 281.126 26.3525 281.564 27.5717C282.014 28.7791 282.659 29.7261 283.499 30.4126C284.351 31.0874 285.399 31.4247 286.642 31.4247ZM310.652 47.2273C309.693 47.2273 308.794 47.1503 307.953 46.9964C307.125 46.8544 306.438 46.6709 305.894 46.446L307.598 40.7997C308.486 41.072 309.285 41.2199 309.995 41.2436C310.717 41.2673 311.339 41.1016 311.859 40.7464C312.392 40.3913 312.824 39.7876 313.156 38.9354L313.6 37.7812L303.816 9.72726H311.771L317.417 29.7557H317.701L323.401 9.72726H331.408L320.808 39.9474C320.299 41.4152 319.607 42.6937 318.731 43.7827C317.867 44.8835 316.772 45.7299 315.446 46.3217C314.12 46.9254 312.522 47.2273 310.652 47.2273Z" fill="#DBDBDB"/>
</svg>
