<svg width="27" height="28" viewBox="0 0 27 28" fill="none" xmlns="http://www.w3.org/2000/svg">
<g id="&#240;&#159;&#166;&#134; icon &#34;wallet&#34;">
<path id="Vector" d="M23.2222 27H3.77778C2.24365 27 1 25.6349 1 23.9508V10.2295C1 8.54552 2.24365 7.18036 3.77778 7.18036H23.2222C24.7564 7.18036 26 8.54552 26 10.2295V23.9508C26 25.6349 24.7564 27 23.2222 27Z" stroke="#DBDBDB" stroke-width="2"/>
<path id="Vector_2" d="M19.75 17.8525C19.3665 17.8525 19.0556 17.5111 19.0556 17.0902C19.0556 16.6692 19.3665 16.3279 19.75 16.3279C20.1335 16.3279 20.4444 16.6692 20.4444 17.0902C20.4444 17.5111 20.1335 17.8525 19.75 17.8525Z" fill="#DBDBDB" stroke="#DBDBDB" stroke-width="2" stroke-linecap="round" stroke-linejoin="round"/>
<path id="Vector_3" d="M21.8333 7.18035V5.05084C21.8333 3.04744 20.1033 1.58842 18.3399 2.10462L3.06204 6.57675C1.84607 6.9327 1 8.14155 1 9.52298V10.2295" stroke="#DBDBDB" stroke-width="2"/>
</g>
</svg>
